<?xml version="1.0" encoding="utf-8"?>
<!-- Generator: Adobe Illustrator 25.1.0, SVG Export Plug-In . SVG Version: 6.00 Build 0)  -->
<svg version="1.1" id="Layer_1" xmlns="http://www.w3.org/2000/svg" xmlns:xlink="http://www.w3.org/1999/xlink" x="0px" y="0px"
	 viewBox="0 0 575.51 600" style="enable-background:new 0 0 575.51 600;" xml:space="preserve">
<style type="text/css">
	.st0{fill:#231F20;}
	.st1{fill:#FFFFFF;}
	.st2{fill:#B3B9C3;}
	.st3{fill:#AE2A51;}
	.st4{fill:#8D97A0;}
	.st5{fill:#9A2E45;}
	.st6{fill:#A5274C;}
	.st7{fill:none;stroke:#231F20;stroke-width:2.752;stroke-miterlimit:2.6131;}
	.st8{fill:#747E84;}
</style>
<g>
	<path class="st0" d="M502.91,173.95l-53.68,7.82c5.64-11.28,7.59-20.44,8.4-28.1l1.04-9.86l-10.79,2.31l-0.06,0.02
		c-20.04,4.56-76.4,9.58-121.08,11.84V72.63c0,0-1.91-6.13-2.69-7.19c-1.57-2.85-3.82-5.45-6.62-7.73
		c5.93-4.77,9.31-10.98,9.31-17.73c0-15.12-16.98-26.96-38.64-26.96c-21.67,0-38.64,11.84-38.64,26.96c0,6.75,3.38,12.96,9.31,17.73
		c-2.8,2.28-5.05,4.88-6.62,7.73c-1.18,1.55-2.69,7.19-2.69,7.19v85.2c-44.32-2.33-98.73-7.25-118.22-11.74
		c-0.04-0.01-0.35-0.11-0.35-0.11l-0.46-0.07l-9.45-2.34l0.62,10.09c0.81,7.69,2.77,16.89,8.47,28.24l-54.63-7.96v273.73h174.94
		v76.99c0,20.46,17.43,42.19,32.06,56.81h0.06l5.24,5.46l4.86-5.46h0.01c14.63-14.63,32.06-36.35,32.06-56.81v-76.99h178.24V173.95
		L502.91,173.95z"/>
	<path class="st1" d="M287.52,191.63c-9.08,0.22-19.41,0.96-29.96,2.04v19.8h29.96V191.63L287.52,191.63z"/>
	<path class="st1" d="M257.56,524.67c0,15.58,12.58,34.36,29.96,51.73V222.97h-29.96V524.67L257.56,524.67z"/>
	<path class="st2" d="M287.52,576.41c17.38-17.37,29.96-36.15,29.96-51.73V222.97h-29.96V576.41L287.52,576.41z"/>
	<path class="st2" d="M317.48,193.26c-9.89-0.94-19.48-1.55-27.87-1.68c-0.68,0.01-1.39,0.03-2.09,0.05v21.84h29.96V193.26
		L317.48,193.26z"/>
	<path class="st3" d="M444.24,190.67c-8.05,13.03-20.87,28.59-41.47,47.43l-12.28,11.23l0.23-16.64l-0.02-0.25v-1.87l0.05-0.16
		c0,0,0.26-18.11,0.34-24.09c-3.08-1.33-8.52-2.83-15.44-4.36c-14.83,4.47-25.73,10.53-33.12,18.34H235.8
		c-7.33-7.74-18.11-13.77-32.77-18.23c-6.68,1.48-11.92,2.94-14.91,4.23c0.09,6.07,0.61,41.22,0.61,41.22l-12.28-9.44
		c-20.52-18.78-33.33-34.29-41.38-47.29l-51.55-7.51V439.6h411.3V183.31L444.24,190.67L444.24,190.67z"/>
	<path class="st1" d="M481.33,191.63l-41.73,6.08c-8.1,11.51-19.81,24.84-36.83,40.4l-12.28,11.23l0.23-16.64l-0.02-0.25v-1.87
		l0.05-0.16c0,0,0.26-18.11,0.34-24.09c-0.83-0.36-1.82-0.73-2.97-1.1c-20.87,4.66-34.9,11.69-42.86,21.38
		c-5.65,0-106.56,0-112.21,0c-7.9-9.61-21.77-16.6-42.36-21.26c-0.98,0.33-1.86,0.66-2.59,0.97c0.09,6.07,0.61,41.22,0.61,41.22
		l-12.28-9.44c-16.94-15.5-28.63-28.78-36.73-40.26l-49.91-7.27v242.73h398.72V190.58L481.33,191.63L481.33,191.63z"/>
	<path class="st4" d="M434.28,204.84c-7.69,9.8-17.89,20.82-31.51,33.27l-12.28,11.23l0.23-16.64l-0.02-0.25v-1.87l0.05-0.16
		c0,0,0.16-11.59,0.27-19.29l-1.36,0.2c-24.26,5.39-35.95,13.48-41.34,21.57H230.01c-5.39-8.09-17.08-16.18-41.34-21.57l-0.48-0.07
		c0.17,11.56,0.54,36.28,0.54,36.28l-12.28-9.44c-13.54-12.39-23.71-23.36-31.39-33.13l-48.95-7.13v229.17h386.14V197.85
		L434.28,204.84L434.28,204.84z"/>
	<path class="st2" d="M288.1,46.93c-9.68,0-17.52-3.12-17.52-6.97c0-3.85,7.84-6.97,17.52-6.97c9.67,0,17.52,3.12,17.52,6.97
		C305.62,43.81,297.78,46.93,288.1,46.93L288.1,46.93z M319.22,72.63c-1.43-6.58-7.99-12.12-17.07-14.98
		c10.31-3.25,17.4-9.93,17.4-17.67c0-10.92-14.08-19.77-31.46-19.77c-17.37,0-31.45,8.85-31.45,19.77c0,7.74,7.09,14.42,17.4,17.67
		c-9.08,2.86-15.64,8.41-17.07,14.98l-0.33,1.8v83.77c3.56,0.17,6.99,0.31,10.36,0.44V78.69h0.04c-0.01-0.18-0.04-0.36-0.04-0.54
		c0-7.92,9.47-14.35,21.14-14.35c11.68,0,21.14,6.42,21.14,14.35c0,0.18-0.03,0.36-0.04,0.54h0.04v80.04
		c3.32-0.12,6.72-0.25,10.27-0.41v-83.9L319.22,72.63L319.22,72.63z"/>
	<path class="st3" d="M278.2,155.16h-7.19v3.62c2.48,0.08,4.86,0.15,7.19,0.21V155.16L278.2,155.16z"/>
	<path class="st5" d="M278.2,155.16V159c4.04,0.1,7.87,0.17,11.37,0.19c4.69-0.03,9.96-0.14,15.62-0.32v-3.71H278.2L278.2,155.16z"
		/>
	<path class="st3" d="M291.83,38.88c3.88,0,7.38,0.53,9.86,1.37c0.02-0.09,0.04-0.18,0.04-0.27c0-2.44-6.11-4.42-13.64-4.42
		c-7.53,0-13.64,1.98-13.64,4.42c0,1.18,1.44,2.26,3.78,3.05C278.66,40.72,284.58,38.88,291.83,38.88L291.83,38.88z"/>
	<path class="st6" d="M301.69,40.26c-2.48-0.84-5.98-1.37-9.86-1.37c-7.25,0-13.17,1.84-13.59,4.15c2.48,0.84,5.98,1.37,9.86,1.37
		C295.34,44.41,301.26,42.57,301.69,40.26L301.69,40.26z"/>
	<path class="st3" d="M295.29,71.66c3.28,0,6.33,0.61,8.93,1.66c-2.32-4.36-8.66-5.71-16.12-5.71c-9.4,0-17.03,3.17-17.08,9.31h0
		v0.05c0,0.01,0,0.01,0,0.02c0,0.01,0,0.01,0,0.02v2.66h7.9C280.99,75.04,287.53,71.66,295.29,71.66L295.29,71.66z"/>
	<polygon class="st5" points="278.2,149.77 305.19,149.77 305.19,137.64 278.2,137.64 278.2,149.77 	"/>
	<polygon class="st5" points="278.2,132.25 305.19,132.25 305.19,120.11 278.2,120.11 278.2,132.25 	"/>
	<polygon class="st5" points="278.2,85.06 278.2,97.2 305.19,97.2 305.19,85.06 278.2,85.06 	"/>
	<polygon class="st5" points="278.2,114.72 305.19,114.72 305.19,102.59 278.2,102.59 278.2,114.72 	"/>
	<path class="st5" d="M278.91,79.67h26.28v-2.75h-0.01c-0.01-1.26-0.36-2.47-0.96-3.6c-2.6-1.05-5.65-1.66-8.93-1.66
		C287.53,71.66,280.99,75.04,278.91,79.67L278.91,79.67z"/>
	<polygon class="st3" points="305.19,85.06 271.01,85.06 271.01,97.2 278.2,97.2 278.2,87.51 305.19,87.51 305.19,85.06 	"/>
	<polygon class="st3" points="305.19,102.59 271.01,102.59 271.01,114.72 278.2,114.72 278.2,105.03 305.19,105.03 305.19,102.59 	
		"/>
	<polygon class="st3" points="305.19,120.11 271.01,120.11 271.01,132.25 278.2,132.25 278.2,122.56 305.19,122.56 305.19,120.11 	
		"/>
	<polygon class="st3" points="305.19,137.64 271.01,137.64 271.01,149.77 278.2,149.77 278.2,140.08 305.19,140.08 305.19,137.64 	
		"/>
	<path class="st2" d="M180.41,232.8l-0.01-0.74c-8.67-11.21-20.67-36.2-18.93-44.48c-13.62-10.98-27.59-23.8-33.2-34.56
		c-0.13-0.03-0.29-0.06-0.42-0.1C129.65,169.99,138.17,194.16,180.41,232.8L180.41,232.8z"/>
	<path class="st1" d="M180.4,232.06l-0.42-29.71c0.1-0.1,0.25-0.2,0.36-0.3c-5.49-4.05-12.13-9.04-18.87-14.47
		C159.73,195.86,171.73,220.85,180.4,232.06L180.4,232.06z"/>
	<path class="st1" d="M288.72,166.38c-44.8-0.27-134.38-7.23-160.45-13.37c5.61,10.76,19.58,23.59,33.2,34.56
		c0.06-0.29,0.14-0.56,0.23-0.81c26.45-7.72,100-11.88,127.02-12.5c27.01,0.62,100.56,4.78,127.02,12.5
		c0.1,0.25,0.17,0.52,0.23,0.81c13.61-10.98,27.59-23.8,33.2-34.56C423.1,159.15,333.53,166.11,288.72,166.38L288.72,166.38z"/>
	<path class="st2" d="M415.97,187.58c-0.06-0.29-0.14-0.56-0.23-0.81c-25.62-7.47-95.4-11.61-124.32-12.43v-0.12
		c-0.83,0.01-1.74,0.03-2.7,0.05c-0.95-0.02-1.86-0.04-2.7-0.05v0.12c-28.92,0.82-98.7,4.96-124.32,12.43
		c-0.1,0.25-0.17,0.52-0.23,0.81c6.74,5.43,13.38,10.42,18.87,14.47c9.22-7.82,74.61-17.16,108.38-17.65
		c33.76,0.49,99.16,9.83,108.38,17.65C402.59,197.99,409.23,193.01,415.97,187.58L415.97,187.58z"/>
	<path class="st2" d="M397.03,232.8l0.01-0.74c8.67-11.21,20.67-36.2,18.93-44.48c13.61-10.98,27.59-23.8,33.2-34.56
		c0.13-0.03,0.29-0.06,0.42-0.1C447.79,169.99,439.27,194.16,397.03,232.8L397.03,232.8z"/>
	<path class="st1" d="M397.04,232.06l0.42-29.71c-0.1-0.1-0.25-0.2-0.37-0.3c5.49-4.05,12.13-9.04,18.87-14.47
		C417.71,195.86,405.72,220.85,397.04,232.06L397.04,232.06z"/>
	<path class="st0" d="M311.72,258.86l0.16,0c-10.11,0-18.34,8.22-18.34,18.33v98.87h50.56c10.11,0,18.33-8.23,18.33-18.34V257.35
		l-5.55,0.16L311.72,258.86L311.72,258.86z M284.34,312.88v-36.27c0-4.9-1.91-9.5-5.37-12.96c-3.46-3.46-8.07-5.37-12.96-5.37
		l0.27,0.01l-50.83-2.53v119.82h35.5v-5.41c0.01,0.04,0.98,5.41,0.98,5.41h35.62c0,0-7.65-44.69-8.55-49.87
		C282.35,322.3,284.34,317.76,284.34,312.88L284.34,312.88z M458.56,227.58l-37.11,5.95c0,0-3.68,14.01-6.46,24.6
		c-2.38-9.09-5.92-22.57-5.92-22.57l-41.18,3.23c0,0,25.14,90.14,25.53,91.54c0,1.44,0,71.43,0,71.43l40.94,4.03
		c0,0,0-68.58,0-70.12c0.44-1.49,32.68-109.45,32.68-109.45L458.56,227.58L458.56,227.58z M120.03,232.75v35.43
		c0,0,16.45,1.97,22.34,2.68c0,8.9,0,134.93,0,134.93l40.94-4.03c0,0,0-114.97,0-125.99c6.26,0.75,21.66,2.6,21.66,2.6v-41.51
		l-84.76-10.17L120.03,232.75L120.03,232.75z"/>
	<path class="st7" d="M311.72,258.86l0.16,0c-10.11,0-18.34,8.22-18.34,18.33v98.87h50.56c10.11,0,18.33-8.23,18.33-18.34V257.35
		l-5.55,0.16L311.72,258.86L311.72,258.86z M284.34,312.88v-36.27c0-4.9-1.91-9.5-5.37-12.96c-3.46-3.46-8.07-5.37-12.96-5.37
		l0.27,0.01l-50.83-2.53v119.82h35.5v-5.41c0.01,0.04,0.98,5.41,0.98,5.41h35.62c0,0-7.65-44.69-8.55-49.87
		C282.35,322.3,284.34,317.76,284.34,312.88L284.34,312.88z M458.56,227.58l-37.11,5.95c0,0-3.68,14.01-6.46,24.6
		c-2.38-9.09-5.92-22.57-5.92-22.57l-41.18,3.23c0,0,25.14,90.14,25.53,91.54c0,1.44,0,71.43,0,71.43l40.94,4.03
		c0,0,0-68.58,0-70.12c0.44-1.49,32.68-109.45,32.68-109.45L458.56,227.58L458.56,227.58z M120.03,232.75v35.43
		c0,0,16.45,1.97,22.34,2.68c0,8.9,0,134.93,0,134.93l40.94-4.03c0,0,0-114.97,0-125.99c6.26,0.75,21.66,2.6,21.66,2.6v-41.51
		l-84.76-10.17L120.03,232.75L120.03,232.75z"/>
	<path class="st8" d="M482.99,211.74l-0.74,0.12v2.37C482.72,212.63,482.99,211.74,482.99,211.74L482.99,211.74z"/>
	<path class="st8" d="M108.12,221.43l-0.33,11.21v45.91c0,0,15.84,1.9,22.34,2.68c0,11.59,0,137.45,0,137.45l64.31-6.32
		c0,0,0-109.24,0-123.41c2.19,0.26,5.44,0.65,8.77,1.05v97.26c0,0,66.26,0,78.11,0c0,0.06,0,0.5,0,0.5h62.25
		c16.55,0,30.01-13.47,30.01-30.02v-53.07c4.22,15.14,7.43,26.65,7.6,27.27c0,1.92,0,80.42,0,80.42l64.31,6.32c0,0,0-79.26,0-81.3
		c0.54-1.82,31.56-105.69,36.77-123.15v-2.37l-10.56,1.69l-7.06,1.13l-45.28,7.26c-4.88,5.11-10.35,10.48-16.57,16.17l-12.28,11.23
		l0.23-16.64l-0.02-0.25v-1.87l0.05-0.16c0,0,0.03-2.14,0.07-5.2c-17.08,1.34-38.58,3.03-38.58,3.03s1.97,7.08,4.89,17.54
		l-46.34,1.38c0,0,0,0.04,0,0.04c-8.9,0.15-16.78,4.24-22.19,10.54c-0.65-0.8-1.22-1.65-1.96-2.39c-5.47-5.47-12.78-8.58-20.58-8.74
		l0.21-0.03l-50.2-2.5V226.5l-27.72-3.33c0.17,11.51,0.36,24.37,0.36,24.37l-12.28-9.44c-7.22-6.61-13.46-12.8-18.9-18.63l-49.2-5.9
		L108.12,221.43L108.12,221.43z"/>
	<path class="st0" d="M311.03,254.37l0.29,0c-12.59,0-22.83,10.24-22.83,22.83v80.61c-2.34-13.66-4.95-28.9-5.29-30.88
		c3.22-4.04,5.07-8.9,5.07-14.05v-36.27c0-6.1-2.38-11.83-6.69-16.14c-4.19-4.19-9.74-6.51-15.65-6.64c0,0,0-0.04,0-0.04
		l-55.55-2.76v129.03h78.11v0.5h55.06c12.58,0,22.83-10.24,22.83-22.83V252.72l-4.63,0.14L311.03,254.37L311.03,254.37z
		 M465.76,221.78l-8.48,1.36l-40,6.41c0,0-1.92,7.33-2.85,10.87c-0.61-2.34-2.53-9.64-2.53-9.64l-50.37,3.96
		c0,0,26.5,95.04,26.83,96.21c0,1.21,0,74.89,0,74.89l49.93,4.91c0,0,0-73.13,0-74.42c0.37-1.24,34.54-115.68,34.54-115.68
		L465.76,221.78L465.76,221.78z M115.16,226.56l-0.18,6.19v39.42c0,0,16.98,2.04,22.34,2.68c0,7.51,0,135.9,0,135.9l49.93-4.91
		c0,0,0-115.66,0-125c5.93,0.71,21.66,2.6,21.66,2.6v-50.56l-93.6-11.23L115.16,226.56L115.16,226.56z"/>
	<path class="st3" d="M311.72,258.86l0.16,0c-10.11,0-18.34,8.22-18.34,18.33v98.87h50.56c10.11,0,18.33-8.23,18.33-18.34V257.35
		l-5.55,0.16L311.72,258.86L311.72,258.86z M284.34,312.88v-36.27c0-4.9-1.91-9.5-5.37-12.96c-3.46-3.46-8.07-5.37-12.96-5.37
		l0.27,0.01l-50.83-2.53v119.82h35.5v-5.41c0.01,0.04,0.98,5.41,0.98,5.41h35.62c0,0-7.65-44.69-8.54-49.87
		C282.35,322.3,284.34,317.76,284.34,312.88L284.34,312.88z M458.56,227.58l-37.11,5.95c0,0-3.68,14.01-6.46,24.6
		c-2.38-9.09-5.92-22.57-5.92-22.57l-41.18,3.23c0,0,25.14,90.14,25.53,91.54c0,1.44,0,71.43,0,71.43l40.94,4.03
		c0,0,0-68.58,0-70.12c0.45-1.49,32.68-109.45,32.68-109.45L458.56,227.58L458.56,227.58z M120.03,232.75v35.43
		c0,0,16.45,1.97,22.34,2.68c0,8.9,0,134.93,0,134.93l40.94-4.03c0,0,0-114.97,0-125.99c6.26,0.75,21.66,2.6,21.66,2.6v-41.51
		l-84.76-10.17L120.03,232.75L120.03,232.75z"/>
	<polygon class="st1" points="199.64,241.65 161.97,237.13 125.67,232.77 125.49,232.75 125.49,263.31 137.82,250.49 137.77,250.42 
		161.95,253.29 161.95,253.29 161.95,253.29 161.97,253.3 188.18,256.41 188.18,256.41 199.64,241.68 199.64,241.65 	"/>
	<polygon class="st4" points="137.77,250.42 137.82,250.49 125.49,263.31 125.49,263.4 147.82,266.08 147.82,266.14 161.95,253.29 
		137.77,250.42 	"/>
	<path class="st4" d="M161.97,253.3v0.02l16.06,16.39l21.61,2.59v-0.07c-3.56-5.3-11.38-15.72-11.46-15.82L161.97,253.3
		L161.97,253.3z"/>
	<path class="st2" d="M188.18,256.41C188.18,256.41,188.18,256.41,188.18,256.41c0.08,0.1,7.9,10.52,11.46,15.82v-30.56
		L188.18,256.41L188.18,256.41z"/>
	<polygon class="st2" points="161.97,383.19 161.98,383.18 177.98,396.76 177.98,269.7 178.03,269.7 161.97,253.31 161.97,383.19 	
		"/>
	<polygon class="st1" points="161.97,253.31 161.95,253.29 161.95,253.29 147.82,266.14 147.82,399.84 147.92,399.83 161.97,383.19 
		161.97,253.31 	"/>
	<polygon class="st4" points="161.98,383.18 161.97,383.19 147.92,399.83 161.97,398.45 177.98,396.88 177.98,396.76 161.98,383.18 
			"/>
	<polygon class="st2" points="243.74,287.36 231.26,274.45 231.23,274.45 231.23,317.27 243.74,306.85 243.74,287.36 	"/>
	<path class="st1" d="M265.53,308.19V286c0-2.88-0.97-5.47-2.5-7.27l-8.9,8.6c0.72,0.46,1.2,1.26,1.2,2.17v14.78
		c0,1.43-1.16,2.58-2.58,2.58h-9.01v-0.02l-12.5,10.42v0.04h30.15C263.41,315.51,265.53,311.56,265.53,308.19L265.53,308.19z"/>
	<polygon class="st4" points="281.64,370.06 267.94,359.84 267.94,359.84 257.07,370.18 281.66,370.18 281.64,370.06 	"/>
	<path class="st4" d="M243.74,286.92h9.01c0.51,0,0.98,0.15,1.38,0.41l8.9-8.6c-1.36-1.59-3.16-2.57-5.14-2.57l-26.63-1.71
		l12.47,12.91V286.92L243.74,286.92z"/>
	<polygon class="st2" points="231.23,360.32 231.26,360.29 246.07,370.14 246.07,328.52 246.1,328.52 231.23,317.32 231.23,360.32 	
		"/>
	<path class="st4" d="M261.31,317.38c0.02-0.02,0.05-0.05,0.07-0.07h-30.15v0.01l14.86,11.2h3.14l12.08-11.09L261.31,317.38
		L261.31,317.38z"/>
	<path class="st2" d="M265.53,286v22.19c0,3.38-2.12,7.32-4.15,9.12h0.06l0.23-0.21l-0.23,0.21h0.46h-0.46l-0.13,0.12l6.62,42.42
		l0,0l13.7,10.22l-7.95-46.41c3.48-2.32,5.77-6.28,5.77-10.77v-36.27c0-3.81-1.66-7.23-4.29-9.6l-12.14,11.73
		C264.57,280.53,265.53,283.12,265.53,286L265.53,286z"/>
	<polygon class="st1" points="261.32,317.43 249.24,328.52 249.4,328.52 256.94,370.18 257.07,370.18 267.94,359.84 261.32,317.43 	
		"/>
	<path class="st1" d="M230.68,317.3h0.54l-0.01-0.01l0.03-0.02v-42.82l0.03,0l0,0l26.63,1.71c1.98,0,3.78,0.98,5.14,2.57
		l12.14-11.73c-2.29-2.07-5.32-3.34-8.66-3.34l-45.17-2.25v108.76h0.08l9.81-9.86v-43l-0.02-0.01H230.68L230.68,317.3z"/>
	<polygon class="st4" points="231.26,360.29 231.23,360.32 221.43,370.18 246.07,370.18 246.07,370.14 231.26,360.29 	"/>
	<path class="st1" d="M311.95,264.25c-3.41,0-6.5,1.33-8.82,3.48c-2.53,2.36-4.13,5.72-4.13,9.46v93.48h0.01l11.34-11.23v-73.61
		c0-3.24,1.17-6.12,2.99-7.98c1.35-1.38,3.04-2.21,4.9-2.21l27.43-1.06l11.44-11.44v-0.23L311.95,264.25L311.95,264.25z"/>
	<path class="st4" d="M337.88,359.46h-27.53v-0.01l-11.34,11.23h45.16c2.92,0,5.61-0.98,7.77-2.61l-10.09-10
		C340.69,358.94,339.33,359.46,337.88,359.46L337.88,359.46z"/>
	<path class="st2" d="M357.12,357.73v-94.6l-11.44,11.44l0.09,0v74.69c0,3.75-1.58,7.03-3.91,8.8l10.09,10
		C355.08,365.7,357.12,361.96,357.12,357.73L357.12,357.73z"/>
	<path class="st2" d="M321.07,348.81v-55.73c0-2.07,0.83-3.94,2.18-5.32c-2.07-2.13-5.97-6.02-9.9-9.92
		c-1.82,1.87-2.99,4.75-2.99,7.98v73.61l10.74-10.63H321.07L321.07,348.81z"/>
	<path class="st4" d="M313.35,277.84c3.93,3.9,7.83,7.79,9.9,9.92c1.38-1.41,3.3-2.29,5.43-2.29h5.88v0.22l11.12-11.12l-27.43,1.06
		C316.39,275.64,314.69,276.47,313.35,277.84L313.35,277.84z"/>
	<path class="st1" d="M334.55,341.2c0,2.62-1.33,4.94-3.35,6.3l10.65,10.55c2.34-1.77,3.91-5.04,3.91-8.8v-74.69l-0.09,0
		l-11.12,11.12V341.2L334.55,341.2z"/>
	<path class="st1" d="M326.95,348.81h-5.86l-10.74,10.63v0.01h27.53c1.45,0,2.8-0.51,3.97-1.4l-10.65-10.55
		C329.99,348.33,328.52,348.81,326.95,348.81L326.95,348.81z"/>
	<polygon class="st2" points="414.84,328.16 414.84,278.55 405.07,241.31 393.88,256.12 414.84,328.16 	"/>
	<polygon class="st1" points="442.6,235.6 425.89,238.29 425.83,238.29 415.06,279.38 414.84,278.55 414.84,328.16 438.21,250.24 
		438.25,250.28 459.37,232.92 442.6,235.6 	"/>
	<polygon class="st4" points="459.37,232.92 438.25,250.28 438.21,250.24 414.84,328.16 429.07,334.75 459.47,232.9 459.37,232.92 	
		"/>
	<polygon class="st2" points="414.84,381.89 414.95,381.78 429.03,399.76 429.03,334.88 429.07,334.75 414.84,328.16 414.84,381.89 
			"/>
	<polygon class="st1" points="393.88,256.12 405.07,241.31 405.06,241.29 389.91,242.48 374.91,243.66 374.91,243.66 398.87,329.6 
		398.87,396.84 414.84,381.89 414.84,328.16 393.88,256.12 	"/>
	<polygon class="st4" points="414.95,381.78 414.84,381.89 398.87,396.84 398.87,396.88 414.84,398.45 429.03,399.84 429.03,399.76 
		414.95,381.78 	"/>
	<path class="st0" d="M562.97,404.5H420.92v21.33c-41.18-15.83-87.45-24.25-135.2-24.25c-46.59,0-91.96,8.08-132.5,23.26V404.5
		H11.18l43.98,60.77h44.21l25.94,42.34l2.32-1.5c42.68-27.64,98.83-42.86,158.1-42.86c60.77,0,117.97,15.92,161.06,44.82l2.28,1.53
		l28.52-44.33H519L562.97,404.5L562.97,404.5z"/>
	<path class="st3" d="M57.97,459.16c-1.45-2.01-30.77-42.52-36.01-49.77h121.45l-48.32,43.67l-2.04,1.3l2.94,4.8H57.97L57.97,459.16
		z M117.42,440.14c11.49-10.38,25.81-23.33,30.3-27.38v13.57C137.26,430.46,127.14,435.07,117.42,440.14L117.42,440.14z"/>
	<path class="st3" d="M478.1,459.16l2.94-4.8l-2.04-1.3l-48.32-43.67h121.45c-5.24,7.24-34.56,47.76-36.01,49.77H478.1L478.1,459.16
		z M426.37,426.33v-13.57c4.48,4.05,18.81,17,30.3,27.38C446.95,435.07,436.83,430.46,426.37,426.33L426.37,426.33z"/>
	<path class="st3" d="M474.27,459.1c-2.52-1.63-5.08-3.22-7.67-4.78c-12.63-7.59-26.07-14.32-40.17-20.14
		c-0.02-0.01-0.04-0.02-0.06-0.02c-1.79-0.74-3.58-1.46-5.39-2.17c-0.02-0.01-0.04-0.02-0.06-0.02
		c-41.04-16.09-87.35-24.68-135.2-24.68c-46.69,0-92.1,8.24-132.5,23.66c-0.02,0.01-0.04,0.01-0.06,0.02
		c-1.81,0.69-3.61,1.4-5.39,2.12c-0.02,0.01-0.04,0.01-0.06,0.02c-14.97,6.03-29.22,13.05-42.54,21.03
		c-1.59,0.95-3.17,1.92-4.74,2.9c0.25,0.42,0.73,1.2,1.37,2.23l0.5,0.82c0.9,1.48,2.06,3.36,3.37,5.51
		c7.33,11.96,19.64,32.04,21.39,34.91c43.25-27.26,99.41-42.32,158.65-42.32c60.76,0,118.05,15.72,161.75,44.25
		c1.98-3.08,16.47-25.6,23.7-36.84c1.61-2.51,2.87-4.46,3.54-5.51L474.27,459.1L474.27,459.1z"/>
	<polygon class="st1" points="142.35,451.93 152.71,475.63 146.1,478.51 135.75,454.81 122.77,460.48 120.51,455.29 153.12,441.04 
		155.39,446.24 142.35,451.93 	"/>
	<path class="st1" d="M190.51,435.62l-15.58,4.27l2.32,8.45l15.58-4.27c1.2-0.33,1.97-0.73,2.32-1.21c0.34-0.48,0.39-1.16,0.15-2.07
		l-1-3.65c-0.24-0.88-0.63-1.44-1.17-1.67C192.58,435.24,191.71,435.29,190.51,435.62L190.51,435.62z M174.95,466.9l-8.34-30.42
		l25.52-7c2.36-0.65,4.19-0.65,5.5,0c1.31,0.65,2.25,2.01,2.83,4.09l1.95,7.13c0.56,2.04,0.44,3.68-0.36,4.9
		c-0.8,1.23-2.38,2.16-4.73,2.81l-3.89,1.07l16.87,7.73l-9.93,2.72l-15.14-8.2l-6.56,1.8l3.15,11.49L174.95,466.9L174.95,466.9z"/>
	<path class="st1" d="M228.15,448.46l23.51-2.81l-2.36-19.8l-23.51,2.81L228.15,448.46L228.15,448.46z M218.8,431.33
		c-0.34-2.85-0.05-4.87,0.88-6.04c0.93-1.18,2.89-1.94,5.9-2.3l22.55-2.69c2.97-0.35,5.04-0.07,6.2,0.86
		c1.17,0.92,1.92,2.81,2.26,5.67l1.97,16.48c0.34,2.85,0.05,4.85-0.87,6c-0.92,1.16-2.86,1.91-5.83,2.26l-22.55,2.69
		c-3,0.36-5.09,0.09-6.27-0.82c-1.18-0.9-1.93-2.78-2.27-5.63L218.8,431.33L218.8,431.33z"/>
	<path class="st1" d="M279.94,450.32c-3.02,0-5.06-0.52-6.12-1.57c-1.06-1.05-1.59-3.01-1.59-5.9l0-6.52l7.3-1.4l0,9.44l14.04,0
		l-0.01-25.61l7.19,0l0,24.1c0,2.89-0.53,4.86-1.59,5.9c-1.06,1.05-3.08,1.57-6.06,1.57L279.94,450.32L279.94,450.32z"/>
	<path class="st1" d="M324.52,439.72l13.45,1.64l-5.07-13.57L324.52,439.72L324.52,439.72z M309.26,450.5l21.18-29.18l6.88,0.84
		l13.78,33.45l-8.02-0.98l-2.85-7.29l-19.46-2.37l-4.41,6.41L309.26,450.5L309.26,450.5z"/>
	<path class="st1" d="M361.57,457.8l8.24-30.47l4.73,1.28l16.11,23.63c0.55,0.79,1.03,1.52,1.43,2.2c0.4,0.67,0.75,1.35,1.05,2.03
		c0.35-1.74,0.6-2.97,0.76-3.69c0.15-0.72,0.29-1.27,0.39-1.66l4.33-16l6.27,1.7l-8.24,30.47l-4.73-1.28l-16.77-24.74
		c-0.4-0.62-0.74-1.18-1.03-1.67c-0.29-0.49-0.55-0.98-0.78-1.48c-0.16,0.97-0.33,1.88-0.51,2.72c-0.18,0.85-0.35,1.58-0.52,2.2
		l-4.46,16.46L361.57,457.8L361.57,457.8z"/>
	<path class="st1" d="M447.39,460.51l-18.34-8.43l-2.83,6.15l17.46,8.04c2.75,1.26,4.39,2.59,4.91,3.99c0.53,1.4,0.2,3.39-1,5.99
		l-1.81,3.94c-1.21,2.62-2.51,4.18-3.92,4.7c-1.41,0.52-3.49,0.15-6.24-1.12l-17.3-7.96c-2.75-1.27-4.39-2.6-4.92-4.01
		c-0.52-1.41-0.19-3.42,1.02-6.04l0.36-0.79l6.32,1.42l-1.57,3.41l19.85,9.13l3.01-6.54l-17.48-8.04c-2.72-1.25-4.34-2.58-4.86-3.97
		c-0.52-1.4-0.18-3.39,1.02-5.99l1.46-3.17c1.2-2.61,2.5-4.17,3.89-4.69c1.4-0.52,3.46-0.15,6.18,1.1l15.9,7.31
		c2.63,1.21,4.24,2.51,4.81,3.89c0.57,1.38,0.32,3.25-0.76,5.61l-0.27,0.59l-6.39-1.27L447.39,460.51L447.39,460.51z"/>
	<polygon class="st0" points="483.59,473.32 483.59,480 481.66,480 481.66,473.32 477.81,473.32 477.81,471.86 487.44,471.86 
		487.44,473.32 483.59,473.32 	"/>
	<polygon class="st0" points="490.21,480 490.21,471.86 491.75,471.86 495.66,476.69 499.54,471.86 501.11,471.86 501.11,480 
		499.31,480 499.31,474.4 495.74,479.03 495.37,479.03 491.75,474.53 491.75,480 490.21,480 	"/>
</g>
</svg>
